<svg version="1.1" id="Layer_1" xmlns="http://www.w3.org/2000/svg" xmlns:xlink="http://www.w3.org/1999/xlink" x="0px" y="0px"
	 width="100%" viewBox="0 0 512 512" enable-background="new 0 0 512 512" xml:space="preserve">
<path fill="#000000" opacity="1.000000" stroke="none" 
	d="
M237.458069,513.000000 
	C235.826996,510.268890 234.266937,507.676117 234.603088,504.483429 
	C234.814743,502.473145 233.601639,501.841003 231.706009,501.234283 
	C226.197159,499.471100 220.488113,500.259583 214.904984,499.629211 
	C192.134521,497.058319 170.351334,491.129913 149.351974,482.146240 
	C123.448074,471.064362 100.236481,455.932404 80.027649,436.193573 
	C76.237625,432.491730 72.620743,428.639374 68.930054,424.854767 
	C64.639389,420.454926 64.377457,415.651337 67.915108,412.081818 
	C71.674942,408.288147 76.568710,408.478638 81.064362,413.091156 
	C92.914864,425.249603 105.242172,436.813202 119.466690,446.223267 
	C137.140228,457.914917 155.835617,467.389130 176.086685,473.872467 
	C190.670364,478.541443 205.589600,481.344086 220.675690,483.516937 
	C224.449707,484.060516 228.310608,483.172607 232.090302,484.319672 
	C233.682007,484.802704 234.488953,483.500122 234.572159,481.966003 
	C234.653305,480.469879 234.649780,478.968109 234.649841,477.468811 
	C234.654556,335.312286 234.656906,193.155777 234.655426,50.999256 
	C234.655334,43.040371 233.964249,42.589920 226.109055,43.396492 
	C194.916168,46.599365 165.207077,54.701195 137.746506,70.137909 
	C122.517494,78.698769 108.340790,88.723114 95.385307,100.541351 
	C79.324799,115.192047 65.740921,131.782104 54.548836,150.371948 
	C39.119953,175.999054 29.448298,203.577728 25.120667,233.247681 
	C22.842611,248.865814 22.674652,264.498322 23.610378,280.011749 
	C25.125799,305.135956 31.365328,329.325470 41.607487,352.482788 
	C47.617817,366.072052 55.320553,378.612091 63.200375,391.103302 
	C66.535431,396.390106 65.993362,401.806610 61.915489,404.355652 
	C57.782402,406.939178 52.629715,405.273041 49.213543,400.459412 
	C27.908094,370.438477 14.687069,337.052979 8.907243,300.856934 
	C5.652736,280.475616 5.795863,259.844849 7.553304,239.232574 
	C10.069777,209.717926 18.539532,181.926788 31.765961,155.598877 
	C40.808136,137.599930 52.285267,121.194122 65.644539,106.006813 
	C87.035454,81.688850 112.363251,62.722263 141.474915,48.816128 
	C163.141953,38.466156 185.949127,31.666100 209.825211,28.624187 
	C216.725479,27.745062 223.606735,26.612528 230.582382,26.666563 
	C233.623810,26.690123 234.601669,25.397474 234.706360,22.467331 
	C234.905838,16.885071 238.070862,13.586958 242.641434,13.709410 
	C247.384079,13.836472 250.329422,17.239792 250.329819,22.742125 
	C250.341461,183.230667 250.338257,343.719208 250.385300,504.207764 
	C250.386154,507.151154 249.803268,509.796539 248.141052,512.635498 
	C244.638718,513.000000 241.277420,513.000000 237.458069,513.000000 
z"/>
<path fill="#000000" opacity="1.000000" stroke="none" 
	d="
M275.545898,1.000000 
	C278.089233,2.615718 279.629730,4.692189 279.275208,7.372667 
	C278.612579,12.382676 281.859406,13.509487 285.521729,13.532943 
	C300.213348,13.627045 314.526031,16.303707 328.710724,19.696953 
	C348.014526,24.314766 366.369629,31.531006 383.793152,41.027668 
	C396.199249,47.789585 407.930206,55.600182 418.950317,64.468285 
	C430.635345,73.871468 441.172577,84.424965 450.997223,95.743698 
	C454.152832,99.379211 457.422577,102.909035 460.100311,106.910889 
	C463.470184,111.947090 463.000122,116.843231 459.035675,119.781609 
	C455.299255,122.550987 449.389923,121.535477 446.253906,116.999054 
	C438.817261,106.241570 429.536346,97.179344 420.159760,88.240784 
	C390.950836,60.396320 356.244324,42.990238 316.972168,34.268665 
	C305.607880,31.744892 294.057495,31.020935 282.559570,29.700277 
	C280.309845,29.441874 279.428314,30.166582 279.381226,32.265091 
	C279.351318,33.597668 279.350098,34.931068 279.350098,36.264103 
	C279.349152,178.741394 279.349030,321.218658 279.351440,463.695953 
	C279.351562,470.915009 279.691132,471.264557 287.059631,470.613983 
	C330.116364,466.812653 369.143280,452.177917 403.572723,426.072632 
	C427.618378,407.840576 447.002075,385.359955 462.102783,359.093628 
	C475.516296,335.761963 484.085693,310.825043 488.392883,284.403351 
	C491.370697,266.136353 491.283173,247.743057 489.795013,229.279449 
	C487.300812,198.333755 477.542664,169.712173 463.305939,142.393799 
	C461.013550,137.995026 462.189056,133.333176 465.857239,131.161835 
	C470.461578,128.436356 475.458801,129.634842 478.187927,134.608643 
	C485.393188,147.740250 491.514099,161.397400 496.089539,175.655563 
	C500.444733,189.227264 503.615662,203.113495 505.520203,217.275620 
	C506.738312,226.333633 507.096588,235.416611 507.438110,244.542023 
	C508.687073,277.910522 502.612610,309.934937 490.280579,340.817108 
	C481.913330,361.770508 470.250336,380.882141 456.294708,398.561066 
	C440.636719,418.396515 422.128479,435.216858 401.012024,449.068878 
	C373.189758,467.319794 342.906738,479.356720 309.931915,484.465698 
	C301.086670,485.836151 292.254761,487.209473 283.291321,487.321472 
	C280.626221,487.354736 279.436218,488.178223 279.291992,491.046967 
	C278.985443,497.143616 275.970978,500.427917 271.318237,500.296082 
	C266.447754,500.158081 263.660004,496.509827 263.659760,490.183105 
	C263.652985,332.874878 263.634918,175.566620 263.717865,18.258425 
	C263.720764,12.723806 262.156342,6.875457 265.833069,1.351250 
	C269.030609,1.000000 272.061188,1.000000 275.545898,1.000000 
z"/>
<path fill="#000000" opacity="1.000000" stroke="none" 
	d="
M100.295944,266.675476 
	C96.009247,263.402802 91.506332,262.235291 86.482704,262.333618 
	C78.322708,262.493378 70.156586,262.438751 61.994339,262.352325 
	C55.776920,262.286469 52.766872,259.338013 52.691826,253.207764 
	C52.595989,245.379028 52.587326,237.546921 52.700691,229.718582 
	C52.810730,222.120041 58.028271,216.765060 65.558540,216.702789 
	C79.884697,216.584335 94.212898,216.606903 108.539459,216.697571 
	C114.125252,216.732925 117.359650,219.830719 117.332855,224.663239 
	C117.303177,230.017670 114.223991,233.222244 108.549080,233.286575 
	C97.222038,233.414978 85.883400,233.614822 74.568283,233.231903 
	C69.058708,233.045456 69.422096,236.074097 69.265884,239.811325 
	C69.095497,243.887634 69.943436,245.864883 74.675621,245.772415 
	C82.121017,245.626938 89.635902,244.882996 97.034599,246.665588 
	C108.973152,249.542038 117.008881,256.620514 120.655396,268.444366 
	C124.326866,280.349152 122.041389,290.895966 113.786346,300.349243 
	C107.283585,307.795898 98.783165,310.632599 89.489838,311.154785 
	C81.728546,311.590881 73.871086,312.136230 66.125153,310.385956 
	C58.053841,308.562195 52.288723,301.111908 52.667828,292.965790 
	C52.872684,288.563873 54.942085,285.553009 59.283817,284.859863 
	C63.591354,284.172150 67.291054,285.377563 68.564842,290.244232 
	C69.495804,293.801086 71.895164,294.826691 75.316071,294.683929 
	C79.141098,294.524323 82.984383,294.789948 86.808189,294.616394 
	C93.998093,294.290070 100.224106,291.865723 103.818153,285.187042 
	C107.490349,278.363220 105.195839,272.363678 100.295944,266.675476 
z"/>
<path fill="#000000" opacity="1.000000" stroke="none" 
	d="
M332.245239,232.665222 
	C337.878387,232.666641 343.044922,232.682831 348.211334,232.664719 
	C360.349609,232.622147 369.389130,238.385651 375.100311,248.595337 
	C381.636810,260.280365 380.945862,272.312347 373.362549,283.424683 
	C366.820557,293.011078 357.285309,297.354950 345.727325,297.340057 
	C339.394257,297.331879 333.059509,297.428406 326.728485,297.314117 
	C317.014771,297.138763 309.246185,288.602631 309.633423,278.970917 
	C309.822174,274.275604 312.362427,271.980194 316.610443,271.325226 
	C320.318573,270.753448 323.945435,271.746826 325.107178,275.535583 
	C326.565186,280.290436 329.568268,281.054626 333.784424,280.690063 
	C339.556488,280.190979 345.429474,281.536560 351.140381,279.653137 
	C358.200562,277.324768 363.226562,270.309937 362.613495,263.488434 
	C361.969360,256.321716 356.258514,250.686172 348.722504,249.278885 
	C338.953369,247.454575 329.127472,248.706161 319.333893,248.401184 
	C311.839294,248.167816 309.675140,246.134705 309.655182,238.484909 
	C309.636902,231.485214 309.633759,224.485397 309.656494,217.485733 
	C309.686005,208.408997 314.448090,202.972214 323.522827,202.761154 
	C337.181305,202.443466 350.856354,202.514847 364.516541,202.797470 
	C368.421326,202.878265 372.717102,203.737808 374.019623,208.538940 
	C375.005249,212.172073 374.265350,215.370193 371.098419,217.905853 
	C369.336761,219.316360 367.452240,219.337585 365.461914,219.339432 
	C354.295685,219.349777 343.128082,219.447647 331.963928,219.296494 
	C328.199921,219.245514 326.103912,219.870575 326.226562,224.426025 
	C326.441498,232.410477 326.177856,232.417572 332.245239,232.665222 
z"/>
<path fill="#000000" opacity="1.000000" stroke="none" 
	d="
M195.156128,228.905563 
	C201.431885,236.490250 204.603271,244.876541 204.291321,254.374268 
	C203.981262,263.814178 205.682129,273.386597 203.230637,282.679108 
	C198.457306,300.772552 185.039078,310.670990 167.505051,310.968018 
	C148.442307,311.290955 133.143387,298.107819 130.591492,279.406952 
	C129.054520,268.143738 128.579697,256.790131 130.864670,245.730576 
	C133.852737,231.268036 143.641205,221.081024 158.556702,217.709351 
	C172.669464,214.519135 184.729568,218.559845 195.156128,228.905563 
M179.828812,289.271942 
	C184.960266,285.195557 187.417969,279.746796 187.605743,273.326630 
	C187.785843,267.169037 187.660950,261.002075 187.647400,254.839279 
	C187.622696,243.598022 179.806259,234.713058 168.806549,233.400497 
	C159.506577,232.290741 149.575119,239.883408 147.246109,250.224854 
	C145.324951,258.755341 145.473541,267.591431 146.837799,276.015381 
	C149.470718,292.273010 166.373047,299.059662 179.828812,289.271942 
z"/>
<path fill="#000000" opacity="1.000000" stroke="none" 
	d="
M418.026245,203.647827 
	C429.899933,202.050278 440.013306,204.855850 448.911041,212.370987 
	C456.161926,218.495193 460.357300,226.543549 461.009186,235.539124 
	C461.785126,246.245987 462.307373,257.124023 460.426544,267.878784 
	C456.005768,293.157410 424.879028,306.503021 402.289246,290.218567 
	C391.654938,282.552521 386.901428,271.744598 386.739868,258.988281 
	C386.603821,248.247925 385.444672,237.355011 389.468292,226.919312 
	C394.498169,213.873856 403.979187,206.283813 418.026245,203.647827 
M403.349548,243.671906 
	C403.694489,250.774445 402.517578,257.939545 404.355499,264.983398 
	C406.702850,273.979828 416.897705,281.562347 425.466217,280.595703 
	C436.128601,279.392853 444.444489,270.744049 444.625854,260.497314 
	C444.743500,253.850403 444.738983,247.198425 444.634247,240.551163 
	C444.499939,232.024658 438.803589,223.953049 431.273529,221.360184 
	C416.760956,216.362976 403.596649,226.436630 403.349548,243.671906 
z"/>
</svg>